<svg width="148" height="148" viewBox="0 0 148 148" fill="none" xmlns="http://www.w3.org/2000/svg">
<g clip-path="url(#clip0_1_8)">
<path d="M44.9653 5.78654C36.1569 9.51217 28.3566 14.7711 21.5644 21.5633C14.7721 28.3555 9.51323 36.1558 5.78761 44.9643C1.92921 54.0858 0 63.6388 0 73.6235C0 81.6848 1.25794 89.4652 3.77278 96.9636L5.37563 93.8167L6.7363 91.1446L7.5351 89.5753C6.28764 84.3988 5.66389 79.0808 5.66389 73.6235C5.66389 64.4037 7.4439 55.5866 11.0028 47.1709C14.4423 39.0404 19.2969 31.8397 25.5688 25.5678C31.8404 19.2969 39.0411 14.4419 47.1709 11.0028C55.5873 7.44285 64.4048 5.66286 73.6235 5.66286C82.8421 5.66286 91.6596 7.44285 100.076 11.0028C104.761 12.9848 109.138 15.4371 113.206 18.3597H122.276C116.317 13.0952 109.652 8.90417 102.282 5.78656C93.1604 1.92885 83.6074 0 73.6235 0C63.6395 0 54.0865 1.92883 44.9653 5.78654Z" fill="#8EDD65"/>
<path d="M91.87 108.039L51.471 22.4816H46.4675L2.89539 108.039H22.0571L48.5421 56.0446L72.9526 108.039H91.87Z" fill="#8EDD65"/>
<path d="M144.352 108.039V90.8301H133.489V22.6032H104.075V39.8119H116.28V90.8301H104.075V108.039H144.352Z" fill="#8EDD65"/>
<path d="M147.247 73.6234C147.247 63.6385 145.318 54.0854 141.459 44.9642C140.352 42.3477 139.11 39.8199 137.733 37.3809V51.0066C140.3 58.2559 141.583 65.7948 141.583 73.6234C141.583 78.0357 141.175 82.3567 140.36 86.5855H144.352L144.56 86.5908L144.768 86.6065L144.974 86.6316L145.18 86.6673L145.383 86.7134L145.583 86.769L145.781 86.834L145.975 86.9084L146.056 86.944C146.85 82.5926 147.247 78.152 147.247 73.6234Z" fill="#8EDD65"/>
<path d="M125.683 125.683C118.89 132.475 111.09 137.734 102.282 141.459C93.1604 145.317 83.6074 147.246 73.6234 147.246C63.6395 147.246 54.0865 145.317 44.9653 141.459C36.1569 137.734 28.3566 132.475 21.5643 125.683C17.4645 121.583 13.9234 117.116 10.941 112.282H17.7077C20.0192 115.617 22.6399 118.749 25.5688 121.678C31.8397 127.949 39.0414 132.805 47.1709 136.243C55.5876 139.803 64.4048 141.583 73.6234 141.583C82.8421 141.583 91.6593 139.803 100.076 136.243C108.205 132.805 115.406 127.949 121.678 121.678C124.607 118.748 127.228 115.617 129.538 112.282H136.306C133.323 117.116 129.782 121.583 125.683 125.683Z" fill="#8EDD65"/>
</g>
<defs>
<clipPath id="clip0_1_8">
<rect width="147.247" height="147.246" fill="white"/>
</clipPath>
</defs>
</svg>
