<svg xmlns="http://www.w3.org/2000/svg" version="1.1" xmlns:xlink="http://www.w3.org/1999/xlink" width="512" height="512" x="0" y="0" viewBox="0 0 32 32" style="enable-background:new 0 0 512 512" xml:space="preserve" class=""><g><g data-name="Layer 2"><path fill="#d96f3b" d="M20.337 8.718A2 2 0 0 0 18.8 8h-5.6a2 2 0 0 0-1.968 2.357l1.787 9.822A1 1 0 0 0 14 21h4a1 1 0 0 0 .983-.821l1.788-9.822a2 2 0 0 0-.434-1.639z" opacity="1" data-original="#d96f3b"></path><path fill="#c44545" d="M18 19h-4a2 2 0 0 0-2 2v3a1 1 0 0 0 1 1h6a1 1 0 0 0 1-1v-3a2 2 0 0 0-2-2z" opacity="1" data-original="#c44545"></path><rect width="12" height="7" x="10" y="23" fill="#ff5454" rx="2" opacity="1" data-original="#ff5454"></rect><path fill="#ffa859" d="m20.707 4.293-2-2A1 1 0 0 0 18 2h-4a1 1 0 0 0-.707.293l-2 2A1 1 0 0 0 11.2 5.6l3 4a1 1 0 0 0 .8.4h2a1 1 0 0 0 .8-.4l3-4a1 1 0 0 0-.093-1.307z" opacity="1" data-original="#ffa859" class=""></path></g></g></svg>