<svg xmlns="http://www.w3.org/2000/svg" version="1.1" xmlns:xlink="http://www.w3.org/1999/xlink" width="512" height="512" x="0" y="0" viewBox="0 0 32 32" style="enable-background:new 0 0 512 512" xml:space="preserve" class=""><g><g data-name="Layer 2"><path fill="#d96f3b" d="M15 12h-2.8a2 2 0 0 0-1.968 2.357l1.787 9.822A1 1 0 0 0 13 25h2zM21.337 12.718A2 2 0 0 0 19.8 12H17v13h2a1 1 0 0 0 .983-.821l1.787-9.822a2 2 0 0 0-.433-1.639z" opacity="1" data-original="#d96f3b" class=""></path><rect width="12" height="7" x="10" y="23" fill="#ff5454" rx="2" opacity="1" data-original="#ff5454" class=""></rect><circle cx="16" cy="8" r="6" fill="#ffa859" opacity="1" data-original="#ffa859" class=""></circle></g></g></svg>