<svg xmlns="http://www.w3.org/2000/svg" version="1.1" xmlns:xlink="http://www.w3.org/1999/xlink" width="512" height="512" x="0" y="0" viewBox="0 0 32 32" style="enable-background:new 0 0 512 512" xml:space="preserve" class=""><g><g data-name="Layer 2"><rect width="8" height="6" x="12" y="19" fill="#d96f3b" rx="1" opacity="1" data-original="#d96f3b"></rect><path fill="#ffa859" d="M22.315 5.9 19 2.586A2.011 2.011 0 0 0 17.586 2h-3.172A2.011 2.011 0 0 0 13 2.586L9.683 5.9a1.991 1.991 0 0 0-.533 1.865l2.875 12.46A1 1 0 0 0 13 21h6a1 1 0 0 0 .975-.775l2.874-12.458a1.989 1.989 0 0 0-.534-1.867z" opacity="1" data-original="#ffa859" class=""></path><rect width="12" height="6" x="10" y="24" fill="#ff5454" rx="2" opacity="1" data-original="#ff5454" class=""></rect></g></g></svg>