<svg xmlns="http://www.w3.org/2000/svg" version="1.1" xmlns:xlink="http://www.w3.org/1999/xlink" width="512" height="512" x="0" y="0" viewBox="0 0 483.955 483.955" style="enable-background:new 0 0 512 512" xml:space="preserve" class=""><g><path d="M210.318 386.562a9.999 9.999 0 0 1-10-10v-75.201H10c-5.523 0-10-4.479-10-10v-98.769c0-5.522 4.477-10 10-10h190.318v-75.201a10 10 0 0 1 15-8.66l233.109 134.585a9.998 9.998 0 0 1 0 17.32L215.318 385.223a9.983 9.983 0 0 1-5 1.339zM20 281.361h190.318c5.523 0 10 4.478 10 10v67.881l203.109-117.266-203.109-117.263v67.881c0 5.522-4.477 10-10 10H20v78.767z" fill="#000000" opacity="1" data-original="#000000" class=""></path><path d="M462.479 468.289H325.624c-5.523 0-10-4.479-10-10s4.477-10 10-10h136.854c.814 0 1.477-.662 1.477-1.477V37.143c0-.814-.662-1.477-1.477-1.477H325.624c-5.523 0-10-4.478-10-10s4.477-10 10-10h136.854c11.843 0 21.477 9.635 21.477 21.477v409.669c.001 11.842-9.634 21.477-21.476 21.477z" fill="#000000" opacity="1" data-original="#000000" class=""></path></g></svg>
