<svg xmlns="http://www.w3.org/2000/svg" version="1.1" xmlns:xlink="http://www.w3.org/1999/xlink" width="512" height="512" x="0" y="0" viewBox="0 0 48 48" style="enable-background:new 0 0 512 512" xml:space="preserve" class=""><g><path d="M28.121 3.707c-2.169-2.26-6.073-2.262-8.242 0L2.914 20.672C.96 22.528 2.405 26.08 5.121 26H7v15c0 2.757 2.243 5 5 5 7.014-.002 16.987.001 24 0 2.757 0 5-2.243 5-5V26h1.879C44.6 26 46 24.6 46 22.879c0-.822-.333-1.626-.914-2.207zM20 44V33c0-.552.449-1 1-1h6c.551 0 1 .448 1 1v11zm22.879-20H40a1 1 0 0 0-1 1v16c0 1.654-1.346 3-3 3h-6V33c0-1.654-1.346-3-3-3h-6c-1.654 0-3 1.346-3 3v11h-6c-1.654 0-3-1.346-3-3V25a1 1 0 0 0-1-1H5.121c-.97.03-1.5-1.248-.793-1.914L21.293 5.121c1.425-1.484 3.989-1.486 5.414 0l16.965 16.965c.698.668.185 1.942-.793 1.914z" fill="#8edd65" opacity="1" data-original="#000000" class=""></path></g></svg>