<svg xmlns="http://www.w3.org/2000/svg" version="1.1" xmlns:xlink="http://www.w3.org/1999/xlink" width="512" height="512" x="0" y="0" viewBox="0 0 1707 1707" style="enable-background:new 0 0 512 512" xml:space="preserve" fill-rule="evenodd" class=""><g><path d="M1316 1326H991c-35 0-35-53 0-53h325c35 0 35 53 0 53zm67 381H323c-53 0-97-44-97-98V218c0-53 44-97 97-97h241C578 52 638 0 711 0h284c73 0 134 52 148 121h240c54 0 98 44 98 97v1391c0 54-44 98-98 98zM561 174H323c-24 0-44 20-44 44v1391c0 25 20 44 44 44h1060c25 0 44-19 44-44V218c0-24-19-44-44-44h-238v100c0 14-11 26-26 26H588c-15 0-27-12-27-26zm54 73h477v-97c0-53-43-97-97-97H711c-53 0-96 44-96 97zm238 1282c-14 0-26-12-26-27V451c0-35 53-35 53 0v1051c0 15-12 27-27 27zm219-942c-24 0-36-30-18-46l60-55-60-56c-26-23 10-63 36-39l64 58 63-58c26-24 62 15 37 39l-61 56 61 55c26 24-11 63-37 39l-63-58-64 58c-5 5-12 7-18 7zm-570 5c-7 0-14-3-19-8l-57-57c-25-25 13-63 38-38l38 38 140-140c25-25 63 13 38 38L521 584c-5 5-12 8-19 8zm213 167H390c-35 0-35-53 0-53h325c36 0 36 53 0 53zm0 142H390c-35 0-35-53 0-53h325c36 0 36 53 0 53zm0 142H390c-35 0-35-54 0-54h325c36 0 36 54 0 54zm0 141H390c-35 0-35-53 0-53h325c36 0 36 53 0 53zm0 142H390c-35 0-35-53 0-53h325c36 0 36 53 0 53zm-72 142H463c-35 0-35-54 0-54h180c35 0 35 54 0 54zm601 0h-180c-35 0-35-54 0-54h180c35 0 35 54 0 54zm72-709H991c-35 0-35-53 0-53h325c35 0 35 53 0 53zm0 142H991c-35 0-35-53 0-53h325c35 0 35 53 0 53zm0 142H991c-35 0-35-54 0-54h325c35 0 35 54 0 54zm0 141H991c-35 0-35-53 0-53h325c35 0 35 53 0 53z" fill="#8edd65" opacity="1" data-original="#000000" class=""></path></g></svg>
