<svg xmlns="http://www.w3.org/2000/svg" version="1.1" xmlns:xlink="http://www.w3.org/1999/xlink" width="512" height="512" x="0" y="0" viewBox="0 0 24 24" style="enable-background:new 0 0 512 512" xml:space="preserve" class=""><g><path d="M14.984 12.2c.208-.133 3.03-2.006 3.015-5.2a6.111 6.111 0 0 0-6-6A6.111 6.111 0 0 0 6 7c-.015 3.193 2.807 5.066 3.015 5.2A10 10 0 0 0 1 22a1 1 0 0 0 1 1h20a1 1 0 0 0 1-1 10 10 0 0 0-8.016-9.8zM7 7a5 5 0 1 1 5 5 5.005 5.005 0 0 1-5-5zM2 22a9.01 9.01 0 0 1 9-9h2a9.01 9.01 0 0 1 9 9z" data-name="Layer 1" fill="#8edd65" opacity="1" data-original="#000000" class=""></path></g></svg>
