<svg width="258" height="258" viewBox="0 0 258 258" fill="none" xmlns="http://www.w3.org/2000/svg">
<path fill-rule="evenodd" clip-rule="evenodd" d="M100.342 61.1633C91.5334 64.889 83.7331 70.1479 76.9409 76.9401C70.1487 83.7323 64.8898 91.5326 61.1642 100.341C57.3058 109.463 55.3765 119.016 55.3765 129C55.3765 137.062 56.6345 144.842 59.1493 152.34L60.7522 149.193L62.1128 146.521L62.9116 144.952C61.6642 139.776 61.0404 134.458 61.0404 129C61.0404 119.781 62.8204 110.963 66.3794 102.548C69.8188 94.4172 74.6734 87.2165 80.9454 80.9446C87.2169 74.6737 94.4176 69.8187 102.547 66.3796C110.964 62.8196 119.781 61.0397 129 61.0397C138.219 61.0397 147.036 62.8196 155.453 66.3796C160.138 68.3616 164.514 70.8139 168.582 73.7365H177.652C171.694 68.472 165.029 64.281 157.658 61.1634C148.537 57.3057 138.984 55.3768 129 55.3768C119.016 55.3768 109.463 57.3056 100.342 61.1633Z" fill="#8EDD65"/>
<path fill-rule="evenodd" clip-rule="evenodd" d="M147.247 163.416L106.848 77.8584H101.844L58.2719 163.416H77.4336L103.919 111.421L128.329 163.416H147.247Z" fill="#8EDD65"/>
<path fill-rule="evenodd" clip-rule="evenodd" d="M199.728 163.416V146.207H188.866V77.98H159.452V95.1887H171.657V146.207H159.452V163.416H199.728Z" fill="#8EDD65"/>
<path fill-rule="evenodd" clip-rule="evenodd" d="M202.623 129C202.623 119.015 200.695 109.462 196.836 100.341C195.729 97.7245 194.487 95.1968 193.109 92.7577V106.383C195.676 113.633 196.96 121.172 196.96 129C196.96 133.412 196.552 137.734 195.736 141.962H199.728L199.937 141.968L200.144 141.983L200.351 142.008L200.556 142.044L200.76 142.09L200.96 142.146L201.158 142.211L201.352 142.285L201.433 142.321C202.226 137.969 202.623 133.529 202.623 129Z" fill="#8EDD65"/>
<path fill-rule="evenodd" clip-rule="evenodd" d="M181.059 181.059C174.267 187.852 166.467 193.111 157.658 196.836C148.537 200.694 138.984 202.623 129 202.623C119.016 202.623 109.463 200.694 100.342 196.836C91.5334 193.111 83.7331 187.852 76.9409 181.059C72.841 176.959 69.2999 172.493 66.3175 167.659H73.0842C75.3957 170.994 78.0164 174.126 80.9454 177.055C87.2162 183.326 94.418 188.181 102.547 191.62C110.964 195.18 119.781 196.96 129 196.96C138.219 196.96 147.036 195.18 155.453 191.62C163.582 188.181 170.783 183.326 177.055 177.055C179.984 174.125 182.604 170.994 184.915 167.659H191.682C188.7 172.493 185.159 176.96 181.059 181.059Z" fill="#8EDD65"/>
<path d="M79.8048 51.0416L78.6469 49.505L68.1137 57.4424L56.535 42.0768L54.9539 43.2682L67.6905 60.1703L79.8048 51.0416Z" fill="#8EDD65"/>
<path d="M88.855 46.0454L79.4155 27.1033L77.6186 27.9988L87.0581 46.9408L88.855 46.0454Z" fill="#8EDD65"/>
<path d="M113.652 21.0301C112.898 20.4258 112.169 19.9109 111.466 19.4853C110.763 19.0598 110.037 18.7353 109.287 18.5121C108.536 18.2888 107.741 18.1766 106.9 18.1755C106.059 18.1743 105.123 18.296 104.092 18.5405C102.916 18.8194 101.732 19.301 100.537 19.9855C99.3433 20.6699 98.3044 21.5658 97.4208 22.6733C96.5372 23.7808 95.9036 25.0965 95.5199 26.6204C95.1363 28.1443 95.1761 29.8829 95.6394 31.8363C96.0427 33.5365 96.7039 34.975 97.6229 36.1516C98.542 37.3283 99.6163 38.2532 100.846 38.9264C102.075 39.5996 103.406 40.0147 104.838 40.1718C106.27 40.3289 107.709 40.2358 109.156 39.8926C109.898 39.7168 110.597 39.5032 111.254 39.2519C111.911 39.0005 112.546 38.6971 113.159 38.3416C113.772 37.986 114.371 37.5717 114.956 37.0986C115.541 36.6255 116.131 36.0701 116.724 35.4325L114.916 27.8087L105.122 30.1317L105.566 32.0038L113.434 30.1376L114.573 34.9398C113.797 35.6969 112.914 36.3412 111.922 36.8725C110.93 37.4038 109.928 37.7896 108.915 38.0298C107.631 38.3344 106.382 38.4253 105.168 38.3024C103.955 38.1795 102.838 37.8424 101.819 37.2913C100.8 36.7402 99.9202 35.9698 99.1792 34.9801C98.4382 33.9905 97.9003 32.7903 97.5657 31.3794C97.171 29.7154 97.1336 28.2484 97.4533 26.9786C97.773 25.7087 98.3024 24.6183 99.0417 23.7074C99.7809 22.7966 100.653 22.0643 101.659 21.5106C102.664 20.9569 103.655 20.5642 104.632 20.3326C105.41 20.1481 106.123 20.0553 106.772 20.0541C107.422 20.053 108.048 20.1383 108.653 20.3102C109.257 20.4821 109.85 20.7474 110.432 21.1061C111.014 21.4649 111.635 21.9097 112.296 22.4408L113.652 21.0301Z" fill="#8EDD65"/>
<path d="M144.243 38.0604L136.1 16.3953L134.848 16.3235L124.311 36.9183L126.427 37.0395L129.885 30.3111L139.405 30.8567L142.1 37.9375L144.243 38.0604ZM138.679 28.9158L130.856 28.4676L133.221 23.7434C133.577 23.0562 133.919 22.3683 134.247 21.6795C134.575 20.9908 134.918 20.2936 135.275 19.5879C135.547 20.3668 135.82 21.1226 136.095 21.8552C136.369 22.5878 136.643 23.325 136.918 24.0669L138.679 28.9158Z" fill="#8EDD65"/>
<path d="M180.636 52.6033L182.244 29.5144L181.134 28.928L162.986 43.2729L164.859 44.2632L170.802 39.5832L179.233 44.0399L178.738 51.5999L180.636 52.6033ZM179.38 41.9726L172.453 38.3108L176.569 34.9989C177.179 34.522 177.776 34.0387 178.361 33.5489C178.945 33.059 179.547 32.5675 180.165 32.0742C180.088 32.8957 180.022 33.6967 179.967 34.4771C179.912 35.2575 179.855 36.042 179.796 36.8306L179.38 41.9726Z" fill="#8EDD65"/>
<path d="M190.072 59.986L203.087 43.6879L202.302 43.0615L193.678 40.4563L193.248 42.29L200.087 44.3612L188.569 58.7855L190.072 59.986Z" fill="#8EDD65"/>
<path d="M66.7829 224.239L67.9408 222.702L57.4076 214.765L68.9863 199.399L67.4052 198.208L54.6686 215.11L66.7829 224.239Z" fill="#8EDD65"/>
<path d="M79.2041 231.32L88.6435 212.378L86.8467 211.483L77.4072 230.425L79.2041 231.32Z" fill="#8EDD65"/>
<path d="M116.471 225.086C116.068 224.207 115.648 223.42 115.211 222.724C114.775 222.028 114.271 221.412 113.701 220.875C113.131 220.339 112.47 219.882 111.72 219.503C110.969 219.124 110.078 218.813 109.047 218.568C107.871 218.289 106.596 218.187 105.222 218.263C103.848 218.338 102.517 218.672 101.23 219.265C99.9434 219.857 98.7864 220.748 97.7593 221.937C96.7321 223.127 95.9869 224.698 95.5236 226.651C95.1203 228.352 95.0651 229.934 95.3578 231.398C95.6506 232.862 96.1951 234.171 96.9913 235.325C97.7876 236.478 98.7901 237.447 99.999 238.23C101.208 239.014 102.536 239.577 103.983 239.92C104.724 240.096 105.445 240.219 106.145 240.29C106.844 240.36 107.548 240.374 108.255 240.332C108.963 240.289 109.684 240.188 110.419 240.028C111.155 239.868 111.931 239.637 112.748 239.334L114.556 231.71L104.762 229.387L104.318 231.259L112.186 233.125L111.047 237.927C110.013 238.256 108.935 238.434 107.81 238.464C106.685 238.493 105.617 238.388 104.604 238.147C103.32 237.843 102.163 237.363 101.134 236.708C100.105 236.053 99.2584 235.251 98.5954 234.301C97.9324 233.351 97.492 232.267 97.2744 231.05C97.0568 229.833 97.1153 228.519 97.4499 227.108C97.8446 225.444 98.4699 224.117 99.3259 223.126C100.182 222.135 101.145 221.398 102.214 220.916C103.284 220.435 104.392 220.172 105.539 220.129C106.686 220.086 107.748 220.18 108.724 220.412C109.502 220.596 110.181 220.834 110.762 221.124C111.343 221.415 111.864 221.772 112.327 222.197C112.79 222.622 113.201 223.126 113.559 223.708C113.918 224.289 114.274 224.966 114.626 225.737L116.471 225.086Z" fill="#8EDD65"/>
<path d="M145.481 241.541L134.917 220.948L133.664 221.02L125.549 242.684L127.665 242.562L130.331 235.483L139.852 234.937L143.337 241.664L145.481 241.541ZM138.908 233.092L131.086 233.541L132.896 228.577C133.171 227.854 133.432 227.131 133.68 226.41C133.927 225.688 134.187 224.956 134.461 224.214C134.821 224.957 135.178 225.677 135.535 226.373C135.891 227.07 136.248 227.771 136.605 228.476L138.908 233.092Z" fill="#8EDD65"/>
<path d="M190.748 224.526L172.575 210.194L171.465 210.78L173.098 233.856L174.971 232.866L174.451 225.319L182.882 220.862L188.85 225.529L190.748 224.526ZM181.256 219.577L174.329 223.238L173.911 217.972C173.86 217.2 173.797 216.434 173.721 215.675C173.646 214.916 173.579 214.142 173.519 213.353C174.155 213.879 174.779 214.385 175.393 214.87C176.007 215.355 176.623 215.844 177.241 216.337L181.256 219.577Z" fill="#8EDD65"/>
<path d="M203.574 214.922L190.559 198.624L189.775 199.25L185.326 207.084L187.019 207.909L190.552 201.698L202.071 216.122L203.574 214.922Z" fill="#8EDD65"/>
<path fill-rule="evenodd" clip-rule="evenodd" d="M37.7833 37.7831C25.8811 49.6854 16.6662 63.3532 10.1384 78.7867C3.37963 94.7663 0.000228882 111.504 0.000228882 129C0.000228882 146.495 3.37963 163.233 10.1384 179.213C16.6661 194.647 25.8811 208.314 37.7833 220.217C49.6871 232.12 63.355 241.335 78.787 247.861C94.7675 254.62 111.505 258 129 258C146.496 258 163.234 254.62 179.213 247.861C194.648 241.333 208.315 232.118 220.216 220.217C232.12 208.312 241.335 194.645 247.862 179.213C254.62 163.232 258 146.494 258 129C258 111.503 254.62 94.7657 247.862 78.7867C241.334 63.3527 232.119 49.6848 220.216 37.7831C208.314 25.8809 194.646 16.6658 179.213 10.1381C163.234 3.37935 146.496 0 129 0C111.504 0 94.7666 3.37935 78.787 10.1381C63.3535 16.6659 49.6856 25.8809 37.7833 37.7831ZM2.54556 129C2.54556 111.848 5.85796 95.4409 12.4827 79.7782C18.8815 64.6496 27.915 51.2512 39.5832 39.583C51.2515 27.9147 64.6499 18.8812 79.7785 12.4824C95.4414 5.85769 111.849 2.54533 129 2.54533C146.152 2.54533 162.559 5.85769 178.221 12.4824C193.35 18.8812 206.748 27.9147 218.416 39.583C230.084 51.2504 239.118 64.6488 245.517 79.7782C252.142 95.4408 255.454 111.848 255.454 129C255.454 146.151 252.142 162.558 245.517 178.221C239.12 193.348 230.086 206.747 218.416 218.417C206.75 230.084 193.351 239.117 178.221 245.516C162.558 252.142 146.151 255.454 129 255.454C111.85 255.454 95.4425 252.142 79.7785 245.516C64.6509 239.118 51.2525 230.085 39.5832 218.417C27.9149 206.749 18.8814 193.35 12.4827 178.221C5.85795 162.559 2.54556 146.151 2.54556 129Z" fill="#8EDD65"/>
</svg>
